<svg xmlns="http://www.w3.org/2000/svg" width="482" height="629" viewBox="0 0 482 629">
    <defs>
        <linearGradient id="a" x1="50%" x2="50%" y1="0%" y2="100%">
            <stop offset="0%" stop-color="#570025"/>
            <stop offset="100%" stop-color="#90004C"/>
        </linearGradient>
    </defs>
    <g fill="none" fill-rule="evenodd">
        <path fill="url(#a)" d="M13 0h482v629H13z" transform="translate(-13)"/>
        <g opacity=".102">
            <path fill="#FF7D84" d="M483.877 274.408v23.965h-3.424a6.847 6.847 0 0 1-6.847-6.847v-10.271a6.847 6.847 0 0 1 6.847-6.847h3.424z"/>
            <path fill="#EB595E" d="M473.606 281.255v10.27h-15.358a6.848 6.848 0 0 1-6.205-3.953l-6.834-14.655 9.31-4.341 5.912 12.679h13.175z"/>
            <path fill="#FFBCBC" d="M471.896 249.138c2.398 5.143.173 11.252-4.967 13.65l-37.234 17.363c-1.713.8-3.75.056-4.55-1.657l-7.234-15.514 49.644-23.15 4.341 9.308z"/>
            <path fill="#FF7D84" d="M466.109 236.728l1.446 3.102-49.644 23.15a13.632 13.632 0 0 1-8.992.904 13.668 13.668 0 0 1-9.207-7.527l52.748-24.597c5.141-2.398 11.252-.173 13.649 4.968z"/>
            <path fill="#EB595E" d="M417.911 262.98l7.234 15.514-6.205 2.895c-1.715.799-3.75.058-4.55-1.657l-5.787-12.41a3.42 3.42 0 0 1 .316-3.438c2.91.702 6.069.46 8.992-.904z"/>
            <path fill="#570025" d="M446.351 259.163a1.712 1.712 0 1 0 1.446 3.103 1.712 1.712 0 0 0-1.446-3.103z"/>
            <path fill="#570025" d="M406.654 264.972a5.131 5.131 0 0 0 .397 3.072l5.788 12.41a5.131 5.131 0 0 0 6.825 2.486l4.918-2.294a5.135 5.135 0 0 0 5.837 1.056l13.962-6.51 6.11 13.103a8.589 8.589 0 0 0 7.757 4.942h13.818c.796 3.902 4.254 6.848 8.387 6.848h3.424c.945 0 1.712-.767 1.712-1.712v-23.965c0-.946-.767-1.712-1.712-1.712h-3.424c-4.133 0-7.591 2.945-8.387 6.847h-10.545l-4.728-10.14 10.86-5.064c5.987-2.793 8.587-9.937 5.794-15.924l-5.787-12.41c-2.798-6.002-9.92-8.596-15.923-5.796l-52.749 24.597a1.712 1.712 0 0 0-.828 2.275 15.32 15.32 0 0 0 8.494 7.89zm11.563 14.865a1.71 1.71 0 0 1-2.275-.829l-5.788-12.41a1.702 1.702 0 0 1-.156-.768c2.467.35 4.847.09 7.046-.659l5.827 12.495-4.654 2.171zm62.236-3.717h1.712v20.541h-1.712a5.141 5.141 0 0 1-5.135-5.135v-10.271a5.141 5.141 0 0 1 5.135-5.135zm-21.574 5.858c.281.603.886.989 1.552.989h11.464v6.847h-13.647a5.154 5.154 0 0 1-4.654-2.966l-6.11-13.104 6.206-2.894 5.19 11.128zm7.326-20.741L428.972 278.6c-.859.4-1.876.026-2.275-.83l-6.51-13.962 46.54-21.704 3.618 7.758c1.994 4.277.137 9.38-4.14 11.375zm-13.02-27.925a8.553 8.553 0 0 1 11.372 4.14l.724 1.55-48.093 22.427a11.978 11.978 0 0 1-15.091-4.295l51.087-23.822z"/>
            <path fill="#570025" d="M461.864 251.928l-9.307 4.341a1.712 1.712 0 1 0 1.447 3.103l9.307-4.341a1.712 1.712 0 1 0-1.447-3.103z"/>
        </g>
        <g opacity=".102" transform="rotate(34 -317.617 175.49)">
            <path fill="#FF7D84" d="M48.6 73.094a5.832 5.832 0 0 1-5.832 5.832H7.776a5.832 5.832 0 0 1-5.832-5.832V26.438a5.832 5.832 0 0 1 5.832-5.832h34.992a5.832 5.832 0 0 1 5.832 5.832v46.656z"/>
            <path fill="#EB595E" d="M36.936 1.944l5.832 18.662H7.776l5.832-18.662zM42.768 78.926L36.936 97.59H13.608L7.776 78.926z"/>
            <path fill="#FFBCBC" d="M13.608 43.934h23.328v11.664H13.608z"/>
            <circle cx="36.936" cy="32.27" r="2.916" fill="#570025"/>
            <circle cx="25.272" cy="32.27" r="2.916" fill="#570025"/>
            <circle cx="13.608" cy="32.27" r="2.916" fill="#570025"/>
            <path fill="#570025" d="M11.664 43.934v11.664c0 1.074.87 1.944 1.944 1.944h23.328c1.074 0 1.944-.87 1.944-1.944V43.934c0-1.073-.87-1.944-1.944-1.944H13.608c-1.074 0-1.944.87-1.944 1.944zm3.888 1.944h19.44v7.776h-19.44v-7.776zM36.936 65.318H13.608a1.944 1.944 0 1 0 0 3.888h23.328a1.944 1.944 0 1 0 0-3.888z"/>
            <circle cx="1.944" cy="49.766" r="1.944" fill="#570025"/>
            <path fill="#570025" d="M1.944 42.962c1.074 0 1.944-.87 1.944-1.944v-14.58a3.892 3.892 0 0 1 3.882-3.887h35.003a3.892 3.892 0 0 1 3.883 3.887v46.656a3.892 3.892 0 0 1-3.883 3.888h-.01H7.77a3.892 3.892 0 0 1-3.882-3.888v-14.58a1.944 1.944 0 1 0-3.888 0v14.58c0 3.784 2.717 6.944 6.302 7.634l5.45 17.44a1.944 1.944 0 0 0 1.856 1.365h23.328c.85 0 1.602-.553 1.856-1.364l5.45-17.44c3.585-.691 6.302-3.85 6.302-7.635V57.542h3.888a1.944 1.944 0 1 0 0-3.888h-3.888v-7.776h3.888a1.944 1.944 0 1 0 0-3.888h-3.888V26.438c0-3.783-2.717-6.943-6.302-7.634l-5.45-17.44A1.944 1.944 0 0 0 36.936 0H13.608c-.85 0-1.602.552-1.856 1.364l-5.45 17.44C2.717 19.495 0 22.654 0 26.438v14.58c0 1.074.87 1.944 1.944 1.944zm33.563 52.683h-20.47L10.42 80.87h29.704l-4.617 14.775zM15.037 3.888h20.47l4.617 14.774H10.42l4.617-14.774z"/>
        </g>
        <g opacity=".151">
            <path fill="#FF7D84" d="M380.99 106.247a1.533 1.533 0 0 1-1.344-2.267l9.197-16.861a1.533 1.533 0 1 1 2.692 1.468l-9.197 16.861c-.28.51-.805.799-1.348.799M430.043 106.247a1.533 1.533 0 0 1-1.347-.799l-9.197-16.86a1.533 1.533 0 1 1 2.692-1.47l9.197 16.862a1.533 1.533 0 0 1-1.345 2.267M373.328 70.991a1.533 1.533 0 0 1-1.533-1.532V55.663a1.533 1.533 0 0 1 3.066 0V69.46c0 .846-.687 1.532-1.533 1.532M437.706 70.991a1.533 1.533 0 0 1-1.533-1.532V55.663a1.533 1.533 0 0 1 3.066 0V69.46c0 .846-.687 1.532-1.533 1.532"/>
            <path fill="#FFBCBC" d="M403.984 58.73a6.131 6.131 0 0 0-6.131 6.132v4.598h12.262v-4.598a6.132 6.132 0 0 0-6.13-6.132"/>
            <path fill="#FFBCBC" d="M384.058 87.853h39.853a3.067 3.067 0 0 0 3.065-3.066V72.525a3.067 3.067 0 0 0-3.065-3.066h-39.853a3.067 3.067 0 0 0-3.066 3.066v12.262a3.067 3.067 0 0 0 3.066 3.066M380.992 83.255h-6.131v-9.197h6.131z"/>
            <path fill="#FF7D84" d="M371.795 87.853a3.075 3.075 0 0 1-3.065-3.066V72.525a3.074 3.074 0 0 1 3.065-3.066 3.074 3.074 0 0 1 3.066 3.066v12.262a3.075 3.075 0 0 1-3.066 3.066"/>
            <path fill="#FFBCBC" d="M426.976 83.255h6.131v-9.197h-6.13z"/>
            <path fill="#FF7D84" d="M436.173 87.853a3.075 3.075 0 0 0 3.066-3.066V72.525a3.074 3.074 0 0 0-3.066-3.066 3.074 3.074 0 0 0-3.066 3.066v12.262a3.075 3.075 0 0 0 3.066 3.066M374.86 55.664h-6.13v-4.168c0-1.085.88-1.963 1.963-1.963h2.204c1.084 0 1.964.878 1.964 1.963v4.168zM439.239 55.664h-6.131v-4.168c0-1.085.88-1.952 1.963-1.952l2.204-.011c1.084 0 1.964.878 1.964 1.963v4.168z"/>
            <path fill="#EB595E" d="M411.648 75.59H396.32l-3.065-6.13h21.459z"/>
            <path fill="#FFBCBC" d="M403.984 93.985c1.843 0 3.475.83 4.599 2.115v-8.246h-9.197V96.1c1.123-1.286 2.756-2.115 4.598-2.115"/>
            <path fill="#EB595E" d="M410.115 100.115a6.131 6.131 0 1 0-12.263 0 6.131 6.131 0 0 0 12.263 0"/>
            <path fill="#570025" d="M384.058 70.992c-.845 0-1.533.688-1.533 1.533v12.262c0 .845.688 1.533 1.533 1.533h39.853c.844 0 1.532-.688 1.532-1.533V72.525c0-.845-.688-1.533-1.532-1.533h-39.853zm39.853 18.394h-39.853a4.604 4.604 0 0 1-4.599-4.599V72.525a4.604 4.604 0 0 1 4.599-4.599h39.853a4.604 4.604 0 0 1 4.598 4.599v12.262a4.604 4.604 0 0 1-4.598 4.599z"/>
            <path fill="#570025" d="M376.394 81.722h3.065V75.59h-3.065v6.132zm6.13 3.065h-9.196V72.525h9.197v12.262z"/>
            <path fill="#570025" d="M371.795 70.991c-.844 0-1.532.689-1.532 1.533v12.263c0 .846.688 1.532 1.532 1.532.845 0 1.533-.686 1.533-1.532V72.524c0-.844-.688-1.533-1.533-1.533m0 18.394a4.603 4.603 0 0 1-4.598-4.598V72.524a4.604 4.604 0 0 1 4.598-4.598 4.604 4.604 0 0 1 4.599 4.598v12.263a4.603 4.603 0 0 1-4.599 4.598M428.509 75.591v6.131h3.066v-6.13h-3.066zm-3.066 9.197V72.526h9.197v12.262h-9.197z"/>
            <path fill="#570025" d="M436.173 70.991c-.845 0-1.533.689-1.533 1.533v12.263c0 .846.688 1.532 1.533 1.532s1.533-.686 1.533-1.532V72.524c0-.844-.688-1.533-1.533-1.533m0 18.394a4.603 4.603 0 0 1-4.598-4.598V72.524a4.604 4.604 0 0 1 4.598-4.598 4.604 4.604 0 0 1 4.598 4.598v12.263a4.603 4.603 0 0 1-4.598 4.598M414.714 83.254h-21.46a1.533 1.533 0 0 1 0-3.066h21.46a1.533 1.533 0 0 1 0 3.066M403.984 95.517a4.604 4.604 0 0 0-4.598 4.598 4.604 4.604 0 0 0 4.598 4.599 4.604 4.604 0 0 0 4.599-4.599 4.604 4.604 0 0 0-4.599-4.598m0 12.262c-4.226 0-7.664-3.438-7.664-7.664 0-4.226 3.438-7.664 7.664-7.664 4.226 0 7.664 3.438 7.664 7.664 0 4.226-3.438 7.664-7.664 7.664"/>
            <path fill="#570025" d="M403.984 92.452c1.064 0 2.108.227 3.066.653v-3.719h-6.131v3.72a7.545 7.545 0 0 1 3.065-.654zm6.131 7.73l-2.687-3.073c-1.793-2.052-5.095-2.052-6.888 0l-2.687 3.073V86.321h12.262v13.861zM379.458 106.247a1.533 1.533 0 0 1-1.344-2.267l9.196-16.861a1.533 1.533 0 1 1 2.692 1.468l-9.197 16.861c-.279.51-.805.799-1.347.799M428.51 106.247a1.533 1.533 0 0 1-1.347-.799l-9.197-16.86a1.533 1.533 0 1 1 2.692-1.47l9.197 16.862a1.533 1.533 0 0 1-1.344 2.267M399.386 67.926h9.197v-3.065a4.604 4.604 0 0 0-4.599-4.599 4.604 4.604 0 0 0-4.598 4.599v3.065zm12.262 3.066H396.32v-6.131c0-4.225 3.438-7.664 7.664-7.664 4.226 0 7.664 3.44 7.664 7.664v6.131zM370.263 54.131h3.065v-2.635a.43.43 0 0 0-.43-.43h-2.205a.43.43 0 0 0-.43.43v2.635zm6.13 3.066h-9.196v-5.7A3.5 3.5 0 0 1 370.693 48h2.204a3.5 3.5 0 0 1 3.497 3.496v5.7z"/>
            <path fill="#570025" d="M384.058 57.196h-24.525a1.533 1.533 0 0 1 0-3.065h24.525a1.533 1.533 0 0 1 0 3.065"/>
            <path fill="#570025" d="M370.263 69.458h3.065V55.663h-3.065zM434.64 54.131h3.066v-2.635a.43.43 0 0 0-.43-.43l-2.197.01a.423.423 0 0 0-.439.42v2.635zm6.131 3.066h-9.196v-5.7a3.495 3.495 0 0 1 3.496-3.486l2.197-.011a3.501 3.501 0 0 1 3.503 3.496v5.7z"/>
            <path fill="#570025" d="M448.436 57.197H423.91a1.533 1.533 0 0 1 0-3.066h24.524a1.533 1.533 0 0 1 0 3.066"/>
            <path fill="#570025" d="M434.64 69.458h3.066V55.663h-3.066zM397.268 74.058H410.7l1.533-3.066h-16.5l1.534 3.066zm14.38 3.065H396.32c-.58 0-1.11-.328-1.371-.847l-3.066-6.132a1.535 1.535 0 0 1 1.372-2.218h21.46a1.532 1.532 0 0 1 1.37 2.218l-3.066 6.132a1.53 1.53 0 0 1-1.37.847z"/>
        </g>
        <g opacity=".102">
            <path fill="#FFBCBC" d="M40.185 86.502l80.428-12.739c7.066-1.119 11.887-7.757 10.768-14.827-1.12-7.07-7.757-11.893-14.823-10.774L36.13 60.901c-7.067 1.12-11.888 7.757-10.768 14.827 1.12 7.07 7.756 11.893 14.822 10.774"/>
            <g fill="#EB595E">
                <path d="M50.694 71.679c-.646-4.08-4.41-6.875-8.406-6.242-3.996.633-6.713 4.454-6.066 8.534.646 4.08 4.41 6.874 8.406 6.241 3.996-.633 6.712-4.454 6.066-8.533M72.403 68.24c-.646-4.08-4.41-6.874-8.406-6.241-3.996.633-6.712 4.454-6.066 8.534.646 4.08 4.41 6.874 8.406 6.241 3.996-.633 6.712-4.454 6.066-8.534M104.967 63.083c-.646-4.08 2.07-7.9 6.066-8.534 3.996-.633 7.76 2.162 8.407 6.242.646 4.08-2.07 7.9-6.067 8.533-3.996.633-7.76-2.161-8.406-6.241"/>
            </g>
            <path fill="#FFBCBC" d="M97.56 94.91l-28.915 4.58c-.933-5.89 3.167-11.437 9.154-12.385l7.228-1.145c5.987-.948 11.6 3.06 12.532 8.95"/>
            <path fill="#FFBCBC" d="M77.203 87.679L84.7 86.49c1.316-.208 2.61-.19 3.844.006L87.36 79.03l-14.993 2.375 1.183 7.467a12.267 12.267 0 0 1 3.653-1.193"/>
            <path fill="#EB595E" d="M116.397 47.225l-5.44.862c7.01-1.11 13.593 3.667 14.702 10.67 1.11 7.005-3.674 13.583-10.685 14.693l5.44-.862c7.01-1.11 11.795-7.688 10.686-14.692-1.11-7.004-7.692-11.781-14.703-10.671M85.294 85.58l-5.44.861c6.007-.951 11.65 3.145 12.602 9.147l5.44-.862c-.95-6.002-6.594-10.098-12.602-9.147"/>
            <path fill="#EB595E" d="M82.332 78.62l1.148 7.247 1.813-.288a10.975 10.975 0 0 1 3.728.058l-1.248-7.879-5.44.862z"/>
            <g fill="#FFF" fill-rule="nonzero">
                <path d="M35.994 59.96l5.44-.862c-7.01 1.11-11.794 7.688-10.685 14.692 1.11 7.004 7.692 11.782 14.702 10.671l-5.44.862c-7.01 1.11-13.593-3.667-14.702-10.671-1.11-7.004 3.674-13.582 10.685-14.692M77.427 86.825l5.44-.861c-6.009.952-10.109 6.59-9.158 12.593l-5.44.862c-.951-6.002 3.149-11.642 9.158-12.594"/>
                <path d="M78.093 79.291l1.148 7.247-1.813.287a10.966 10.966 0 0 0-3.527 1.207l-1.248-7.879 5.44-.862z"/>
            </g>
            <path fill="#570025" d="M37.036 62.284c-6.012.952-10.133 6.581-9.187 12.55.945 5.97 6.604 10.051 12.616 9.099l79.946-12.662c6.013-.953 10.133-6.582 9.188-12.552-.946-5.97-6.604-10.05-12.617-9.098L37.036 62.284zm83.947 12.595L41.037 87.541c-8.015 1.27-15.562-4.172-16.822-12.13-1.26-7.958 4.235-15.466 12.25-16.736l79.946-12.662c8.015-1.27 15.561 4.173 16.822 12.13 1.26 7.959-4.236 15.467-12.25 16.736z"/>
            <path fill="#570025" d="M43.344 66.833c-3.005.476-5.066 3.291-4.593 6.275.472 2.984 3.302 5.025 6.308 4.55 3.005-.477 5.066-3.292 4.593-6.276-.472-2.984-3.303-5.025-6.308-4.55m2.286 14.434c-5.01.793-9.726-2.608-10.513-7.582-.788-4.974 2.646-9.666 7.656-10.46 5.01-.793 9.725 2.608 10.513 7.582.788 4.974-2.647 9.666-7.656 10.46M65.148 63.38c-3.006.475-5.067 3.291-4.594 6.275.473 2.984 3.303 5.025 6.308 4.549s5.066-3.292 4.594-6.276c-.473-2.984-3.303-5.025-6.308-4.549m2.286 14.433c-5.01.794-9.726-2.607-10.514-7.581-.788-4.975 2.647-9.667 7.656-10.46 5.01-.793 9.726 2.608 10.514 7.582.788 4.974-2.647 9.666-7.656 10.46M115.063 61.022a1.834 1.834 0 0 0-2.103-1.517 1.834 1.834 0 0 0-1.531 2.092 1.834 1.834 0 0 0 2.103 1.516 1.834 1.834 0 0 0 1.53-2.091"/>
            <path fill="#570025" d="M67.822 68.504a1.834 1.834 0 0 0-2.103-1.516 1.834 1.834 0 0 0-1.531 2.091 1.834 1.834 0 0 0 2.103 1.517 1.834 1.834 0 0 0 1.53-2.092M46.018 71.957a1.834 1.834 0 0 0-2.102-1.516 1.834 1.834 0 0 0-1.531 2.092 1.834 1.834 0 0 0 2.102 1.516 1.834 1.834 0 0 0 1.531-2.092M112.388 55.897c-3.005.476-5.066 3.292-4.593 6.276.472 2.984 3.303 5.025 6.308 4.549s5.066-3.292 4.594-6.276c-.473-2.984-3.303-5.025-6.309-4.549m2.286 14.433c-5.009.793-9.725-2.608-10.513-7.582-.788-4.974 2.647-9.666 7.656-10.46 5.01-.793 9.726 2.608 10.514 7.583.787 4.974-2.647 9.666-7.657 10.459M70.76 97.629l25.072-3.972c-1.496-3.977-5.658-6.5-10.046-5.806l-7.268 1.151c-4.386.695-7.567 4.381-7.758 8.627m27.642-.68l-29.071 4.604a1.834 1.834 0 0 1-2.103-1.516c-1.103-6.964 3.707-13.532 10.718-14.643l7.268-1.151c7.014-1.11 13.616 3.65 14.719 10.614a1.833 1.833 0 0 1-1.531 2.092"/>
            <path fill="#570025" d="M77.947 85.394l7.268-1.151a12.45 12.45 0 0 1 1.838-.155l-.593-3.741-10.902 1.726.593 3.742c.59-.186 1.19-.325 1.796-.421m11.573 2.511c-.204.032-.414.03-.621-.007a9.211 9.211 0 0 0-3.113-.047l-7.268 1.151a9.206 9.206 0 0 0-2.945 1.007 1.857 1.857 0 0 1-1.69.032 1.823 1.823 0 0 1-1.001-1.35l-1.243-7.846a1.834 1.834 0 0 1 1.531-2.092l14.536-2.302a1.834 1.834 0 0 1 2.102 1.516l1.243 7.846a1.822 1.822 0 0 1-.535 1.594c-.276.268-.625.44-.996.498"/>
        </g>
        <g opacity=".102">
            <path fill="#FFBCBC" d="M199.308 426.472c1.04 3.203-.729 6.675-3.932 7.716-3.203 1.04-6.675-.729-7.716-3.932-1.04-3.203.728-6.675 3.932-7.716 3.203-1.04 6.675.729 7.716 3.932"/>
            <path fill="#FF7D84" d="M199.16 445.836l-4.714 1.532c-1.941.63-3.054 2.868-2.41 4.848l.643 1.98 2.757 8.487 5.547-1.802-2.757-8.487 2.773-.9 2.773-.902 2.758 8.486 5.546-1.802-2.757-8.486-.644-1.98c-.643-1.98-2.858-3.137-4.8-2.506l-4.714 1.532z"/>
            <g fill="#FF7D84">
                <path d="M157.839 437.21c1.125 1.048 2.012 2.33 2.52 3.891l.461 1.42 29.25-9.504a5.384 5.384 0 0 1-1.774-2.563 5.384 5.384 0 0 1-.071-3.116l-30.386 9.873zM196.672 446.57l5.68-1.845-3.691-11.36-5.68 1.846z"/>
            </g>
            <path fill="#EB595E" d="M192.09 422.378c-.399.13-.884.448-1.283.578 2.452-.153 4.94 1.614 5.838 4.38.9 2.767-.122 5.513-2.148 6.977.4-.13.979-.158 1.378-.287 2.929-.952 4.473-4.351 3.433-7.554-1.041-3.203-4.289-5.046-7.217-4.094M204.55 444.084l-2.893.94c2.025-.657 4.313.476 4.957 2.456l.643 1.98 2.757 8.486 2.894-.94-2.757-8.486-.644-1.98c-.643-1.98-2.93-3.114-4.956-2.456"/>
            <path fill="#EB595E" d="M199.993 445.565l2.496-.81-3.785-11.648-2.496.81z"/>
            <g fill="#FFBCBC">
                <path d="M164.485 483.357c-4.631 1.505-9.653-1.059-11.16-5.697l-10.047-30.921c-1.507-4.638 1.049-9.664 5.68-11.17 4.631-1.504 9.653 1.06 11.16 5.698l10.047 30.92c1.507 4.64-1.049 9.665-5.68 11.17"/>
                <path d="M169.252 469.377l.822 2.53c1.37 4.216-.439 9.155-4.466 11.085-4.87 2.204-10.64-.272-12.284-5.332l-.913-2.811c-3.087 1.003-4.791 4.354-3.787 7.446l7.307 22.488 28.068-9.12-7.307-22.488c-1.004-3.092-4.353-4.801-7.44-3.798"/>
            </g>
            <g fill="#FF7D84">
                <path d="M153.278 525.031l45.603-14.817-1.882-5.79-45.603 14.817z"/>
                <path d="M154.246 518.315l39.903-12.965-1.88-5.79-39.904 12.965z"/>
                <path d="M155.215 511.6l34.203-11.114-1.881-5.79-34.203 11.113z"/>
            </g>
            <g fill="#FFF" fill-rule="nonzero">
                <path d="M156.116 476.192l-10.13-31.176c-1.38-4.25.617-8.66 4.335-10.651-.469-.005-1.033.179-1.456.316-4.654 1.512-7.218 6.575-5.699 11.252l10.13 31.175c1.52 4.676 6.57 7.265 11.223 5.753.424-.138.988-.32 1.365-.6-4.18.575-8.387-1.818-9.768-6.07M152.651 475.124l-.276-.85c-3.103 1.008-4.812 4.383-3.8 7.5l7.368 22.674 2.82-.917-7.367-22.673c-.69-2.125-.161-4.334 1.255-5.734M153.007 524.202l2.82-.917-1.842-5.668-2.82.916zM153.985 517.617l2.82-.916-1.841-5.669-2.82.917z"/>
                <path d="M154.964 511.032l2.82-.916-1.841-5.668-2.82.916z"/>
            </g>
            <path fill="#570025" d="M198.631 511.315l-45.417 14.757c-.851.276-1.599-.094-1.87-.926l-1.801-5.546c-.27-.832.117-1.571.968-1.848l45.417-14.757c.851-.277 1.6.094 1.87.926l1.802 5.546c.27.832-.117 1.571-.969 1.848zm-44.898 11.522l42.578-13.834-.902-2.774-42.578 13.835.902 2.773z"/>
            <path fill="#570025" d="M194.248 506.3l-39.603 12.868c-.848.276-1.594-.095-1.865-.927l-1.802-5.547c-.27-.832.115-1.57.964-1.846l39.602-12.867c.85-.276 1.595.095 1.865.927l1.803 5.546c.27.832-.115 1.57-.964 1.846zm-39.09 9.635l36.774-11.948-.9-2.774-36.775 11.949.902 2.773z"/>
            <path fill="#570025" d="M189.034 501.556l-33.792 10.98c-.844.274-1.588-.098-1.858-.93l-1.802-5.546c-.27-.832.112-1.57.957-1.845l33.792-10.98c.844-.274 1.588.098 1.858.93l1.802 5.547c.27.832-.112 1.57-.957 1.844zm-33.285 7.749l30.976-10.065-.901-2.773-30.976 10.064.901 2.774zM164.84 484.582c-5.563 1.807-11.404-1.126-13.19-6.624l-10.078-31.015c-1.787-5.498 1.215-11.305 6.777-13.112 5.563-1.807 11.404 1.126 13.19 6.624l10.078 31.015c1.786 5.498-1.215 11.305-6.778 13.112zm-15.575-47.932c-3.993 1.298-6.123 5.419-4.84 9.366l10.077 31.015c1.282 3.947 5.428 6.03 9.421 4.732 3.994-1.298 6.124-5.419 4.841-9.366l-10.077-31.015c-1.282-3.947-5.428-6.03-9.422-4.732z"/>
            <path fill="#570025" d="M184.654 496.54l-27.985 9.093c-.84.273-1.58-.105-1.853-.945L147.54 482.3c-1.273-3.917.805-7.996 4.723-9.27.84-.272 1.581.106 1.854.945l.91 2.799c.59 1.819 1.881 3.41 3.69 4.215 2.039 1.04 4.365 1.057 6.513.05 3.362-1.556 4.835-5.593 3.653-9.231l-.773-2.379c-.273-.84.105-1.581.944-1.854 3.918-1.273 7.997.805 9.27 4.723l7.274 22.388c.273.84-.105 1.581-.945 1.854zm-27.495 5.84l25.187-8.184-6.82-20.988c-.59-1.82-2.21-2.995-4.071-3.01l.272.84c1.637 5.038-.592 10.558-5.262 12.848-2.941 1.42-6.198 1.396-9.164-.116-2.456-1.368-4.208-3.428-5.072-6.087l-.364-1.12c-1.497 1.106-2.117 3.01-1.526 4.828l6.82 20.989zM196.333 435.717c-3.96 1.286-8.083-.814-9.37-4.774-1.287-3.96.814-8.083 4.774-9.37 3.96-1.287 8.083.814 9.37 4.774 1.287 3.96-.814 8.083-4.774 9.37zm-3.677-11.315c-2.404.781-3.645 3.217-2.864 5.622.781 2.404 3.217 3.645 5.622 2.864 2.404-.781 3.645-3.217 2.864-5.622-.781-2.404-3.217-3.646-5.622-2.864z"/>
            <path fill="#570025" d="M190.02 434.088l-29.172 9.48c-.85.275-1.596-.095-1.867-.927l-.45-1.387c-.406-1.248-1.05-2.265-2.118-3.145a1.301 1.301 0 0 1-.45-1.386c.148-.508.482-.924 1.049-1.108l30.305-9.846c.567-.184 1.082-.045 1.5.279.419.324.599.878.45 1.386-.34.878-.257 1.617-.032 2.31.226.694.592 1.341 1.243 1.896.418.324.598.88.45 1.387-.148.508-.483.923-.907 1.061zm-28.657 6.246l25.632-8.329c-.277-.37-.457-.924-.592-1.34-.135-.416-.315-.971-.31-1.433l-26.056 8.466c.554.74 1.01 1.665 1.326 2.636zM171.1 488.987l-8.736 2.838c-.874.284-1.618-.026-1.862-.775-.243-.749.177-1.437 1.05-1.72l8.737-2.84c.873-.283 1.618.027 1.861.776.243.748-.177 1.437-1.05 1.72zM175.557 493.977l-13.866 4.505c-.832.27-1.55-.048-1.792-.797-.244-.749.149-1.428.98-1.698l13.867-4.506c.832-.27 1.549.049 1.792.797.244.75-.149 1.429-.98 1.699zM203.59 445.316l-8.319 2.703-4.595-14.143 8.32-2.704 4.595 14.144zm-6.465-1.026l2.774-.902-2.758-8.486-2.773.901 2.757 8.487z"/>
            <path fill="#570025" d="M212.453 458.074l-5.665 1.84c-.85.276-1.596-.094-1.867-.926l-2.252-6.934-2.833.92 2.253 6.934c.27.832-.116 1.57-.965 1.847l-5.665 1.84c-.85.276-1.596-.094-1.867-.926l-3.334-10.261c-.9-2.774.644-5.729 3.476-6.649l9.772-3.175c2.832-.92 5.819.562 6.72 3.336l3.334 10.26c.128.879-.258 1.618-1.107 1.894zm-5.15-1.393l2.832-.92-2.883-8.875c-.406-1.248-1.712-1.897-2.987-1.482l-9.771 3.175c-1.275.414-1.95 1.706-1.545 2.954l2.883 8.875 2.833-.92-2.253-6.934c-.27-.832.116-1.57.966-1.847l5.664-1.84c.85-.276 1.596.094 1.867.926l2.253 6.934.141-.046zM163.093 477.79c-.75.244-1.431-.157-1.706-1.002l-10.98-33.791c-.274-.845.042-1.57.791-1.813.75-.244 1.431.157 1.706 1.002l10.98 33.791c.274.845-.042 1.57-.791 1.814z"/>
        </g>
        <g opacity=".102">
            <g fill="#FFBCBC">
                <path d="M366.305 470.692h7.257v7.258h-7.257zM395.335 470.692h7.258v7.258h-7.258zM380.82 470.692h7.257v7.258h-7.257zM366.305 522.947h7.257v7.258h-7.257zM395.335 522.947h7.258v7.258h-7.258zM380.82 522.947h7.257v7.258h-7.257zM406.947 482.305h7.258v7.257h-7.258zM406.947 511.335h7.258v7.258h-7.258zM406.947 496.82h7.258v7.257h-7.258zM354.692 482.305h7.258v7.257h-7.258zM354.692 511.335h7.258v7.258h-7.258zM354.692 496.82h7.258v7.257h-7.258z"/>
            </g>
            <path fill="#EB595E" d="M361.95 477.95h44.997v44.997H361.95z"/>
            <path fill="#FFBCBC" d="M369.208 485.208h30.482v30.482h-30.482z"/>
            <path fill="#570025" d="M399.69 483.393h-30.482a1.814 1.814 0 0 0-1.815 1.815v30.482c0 1.002.813 1.814 1.815 1.814h30.482a1.814 1.814 0 0 0 1.814-1.814v-30.482a1.814 1.814 0 0 0-1.814-1.815zm-1.815 30.482h-26.853v-26.853h26.853v26.853z"/>
            <path fill="#570025" d="M384.232 495.005h7.474a1.814 1.814 0 1 0 0-3.628h-7.474a1.814 1.814 0 1 0 0 3.628zM376.224 495.005c.477 0 .945-.194 1.282-.531a1.83 1.83 0 0 0 .533-1.283c0-.477-.194-.945-.533-1.283a1.827 1.827 0 0 0-1.282-.531c-.479 0-.945.194-1.283.531a1.829 1.829 0 0 0-.531 1.283c0 .477.193.946.531 1.283.338.337.804.531 1.283.531zM376.224 502.263h15.482a1.814 1.814 0 1 0 0-3.629h-15.482a1.814 1.814 0 1 0 0 3.629zM376.224 505.892c-.477 0-.945.194-1.283.531a1.82 1.82 0 0 0-.531 1.283c0 .477.192.946.531 1.283.338.337.806.532 1.283.532.477 0 .945-.195 1.282-.532a1.83 1.83 0 0 0 .533-1.283c0-.477-.194-.945-.533-1.283a1.83 1.83 0 0 0-1.282-.531zM383.697 505.892c-.477 0-.945.194-1.282.531a1.829 1.829 0 0 0-.532 1.283c0 .477.194.946.532 1.283.337.337.805.532 1.282.532s.946-.195 1.283-.532a1.82 1.82 0 0 0 .532-1.283 1.82 1.82 0 0 0-.532-1.283 1.829 1.829 0 0 0-1.283-.531zM391.706 505.892c-.477 0-.945.194-1.283.531a1.829 1.829 0 0 0-.531 1.283c0 .477.194.946.531 1.283.338.337.806.532 1.283.532.477 0 .946-.195 1.283-.532.337-.337.532-.806.532-1.283 0-.477-.195-.945-.532-1.283a1.829 1.829 0 0 0-1.283-.531zM384.472 457.629c.478 0 .943-.194 1.283-.532.337-.337.531-.806.531-1.283 0-.477-.194-.945-.531-1.282a1.831 1.831 0 0 0-1.283-.532c-.48 0-.945.194-1.283.532a1.829 1.829 0 0 0-.531 1.282c0 .477.194.946.531 1.283a1.83 1.83 0 0 0 1.283.532z"/>
            <path fill="#570025" d="M414.205 505.892a1.814 1.814 0 0 0 1.814-1.815v-1.79h13.064a1.815 1.815 0 0 0 0-3.63h-13.064v-1.837a1.814 1.814 0 0 0-1.814-1.815h-5.443v-3.628h5.443a1.814 1.814 0 0 0 1.814-1.815v-1.814h8.528a1.814 1.814 0 0 0 1.814-1.815v-4.173h2.722a1.814 1.814 0 1 0 0-3.628h-4.536a1.814 1.814 0 0 0-1.815 1.814v4.173h-6.713v-1.814a1.814 1.814 0 0 0-1.814-1.815h-5.443v-2.54a1.814 1.814 0 0 0-1.815-1.814h-2.54v-5.444a1.814 1.814 0 0 0-1.814-1.814h-1.815v-6.713h4.173a1.814 1.814 0 0 0 1.815-1.815v-4.536a1.814 1.814 0 1 0-3.629 0v2.722h-4.173a1.814 1.814 0 0 0-1.815 1.814v8.528h-1.814a1.814 1.814 0 0 0-1.814 1.814v5.444h-3.63v-5.444a1.814 1.814 0 0 0-1.814-1.814h-1.79v-5.791a1.815 1.815 0 0 0-3.63 0v5.791h-1.837a1.814 1.814 0 0 0-1.815 1.814v5.444h-3.628v-5.444a1.814 1.814 0 0 0-1.815-1.814h-1.814v-8.528a1.814 1.814 0 0 0-1.815-1.814h-4.173v-2.722a1.814 1.814 0 1 0-3.628 0v4.536c0 1.003.812 1.815 1.814 1.815h4.173v6.713h-1.814a1.814 1.814 0 0 0-1.815 1.814v5.444h-2.54a1.814 1.814 0 0 0-1.814 1.814v2.54h-5.444a1.814 1.814 0 0 0-1.814 1.815v1.814h-6.713v-4.173a1.814 1.814 0 0 0-1.815-1.814h-4.536a1.814 1.814 0 1 0 0 3.628h2.722v4.173c0 1.003.812 1.815 1.814 1.815h8.528v1.814c0 1.002.812 1.815 1.814 1.815h5.444v3.628h-5.444a1.814 1.814 0 0 0-1.814 1.815v1.838h-13.064a1.814 1.814 0 1 0 0 3.628h13.064v1.791c0 1.003.812 1.815 1.814 1.815h5.444v3.629h-5.444a1.814 1.814 0 0 0-1.814 1.814v1.814h-8.528a1.814 1.814 0 0 0-1.814 1.815v4.173h-2.722a1.814 1.814 0 1 0 0 3.629h4.536a1.814 1.814 0 0 0 1.815-1.815v-4.173h6.713v1.815c0 1.002.812 1.814 1.814 1.814h5.444v2.54c0 1.002.812 1.815 1.814 1.815h2.54v5.443c0 1.002.812 1.814 1.815 1.814h1.814v6.713h-4.173a1.814 1.814 0 0 0-1.814 1.815v4.536a1.814 1.814 0 1 0 3.628 0v-2.722h4.173a1.814 1.814 0 0 0 1.815-1.814v-8.528h1.814a1.814 1.814 0 0 0 1.815-1.814v-5.443h3.628v5.443c0 1.002.813 1.814 1.815 1.814h1.838v13.064a1.814 1.814 0 1 0 3.628 0v-13.064h1.791a1.814 1.814 0 0 0 1.815-1.814v-5.443h3.629v5.443c0 1.002.812 1.814 1.814 1.814h1.814v8.528c0 1.002.813 1.814 1.815 1.814h4.173v2.722a1.814 1.814 0 1 0 3.629 0v-4.536a1.814 1.814 0 0 0-1.815-1.815h-4.173v-6.713h1.815a1.814 1.814 0 0 0 1.814-1.814v-5.443h2.54a1.814 1.814 0 0 0 1.815-1.815v-2.54h5.443a1.814 1.814 0 0 0 1.814-1.814v-1.815h6.713v4.173c0 1.003.813 1.815 1.815 1.815h4.536a1.814 1.814 0 1 0 0-3.629h-2.722v-4.173a1.814 1.814 0 0 0-1.814-1.815h-8.528v-1.814a1.814 1.814 0 0 0-1.814-1.814h-5.443v-3.63h5.443zm-1.815-7.258v3.629h-3.628v-3.629h3.628zm0-14.515v3.629h-3.628v-3.629h3.628zm-15.24-11.612h3.628v3.629h-3.629v-3.63zm-14.516 0h3.629v3.629h-3.629v-3.63zm-14.515 0h3.629v3.629h-3.629v-3.63zm-11.612 15.24v-3.628h3.629v3.629h-3.63zm0 14.516v-3.629h3.629v3.629h-3.63zm0 14.515v-3.629h3.629v3.63h-3.63zm15.24 11.612h-3.628v-3.628h3.629v3.628zm14.516 0h-3.629v-3.628h3.629v3.628zm14.515 0h-3.629v-3.628h3.63v3.628zm4.355-7.257h-41.369v-41.369h41.369v41.369zm7.257-7.984v3.63h-3.628v-3.63h3.628z"/>
        </g>
    </g>
</svg>
