<svg xmlns="http://www.w3.org/2000/svg" xmlns:xlink="http://www.w3.org/1999/xlink" width="143" height="38" viewBox="0 0 143 38">
    <defs>
        <path id="a" d="M0 36.5h139.419V.75H0z"/>
    </defs>
    <g fill="none" fill-rule="evenodd" transform="translate(1.5)">
        <path fill="#F2303A" d="M11.079 33.29c2.597-1.917 6.08-2.876 9.561-2.876 5.066 0 10.131 2.029 12.474 6.086h8.167l-2.455-4.253C33.544 23.1 20.75 22.2 11.079 33.29m19.916-14.607L20.64.75 0 36.5h8.167c4.581-7.934 12.317-15.003 22.828-17.817"/>
        <path fill="#FFF" d="M55.011 14.12v12.415h-1.573V24.4c-.67.815-1.422 1.425-2.255 1.838a6.124 6.124 0 0 1-2.734.616c-1.755 0-3.255-.639-4.5-1.912-1.242-1.274-1.866-2.823-1.866-4.65 0-1.787.631-3.313 1.885-4.583 1.254-1.269 2.765-1.908 4.529-1.908 1.02 0 1.943.218 2.764.65.826.436 1.55 1.087 2.177 1.952v-2.282h1.573zm-6.39 1.223a4.85 4.85 0 0 0-2.465.654 4.815 4.815 0 0 0-1.795 1.846 5.052 5.052 0 0 0 .004 5.019 4.933 4.933 0 0 0 1.811 1.866 4.734 4.734 0 0 0 2.433.665c.876 0 1.706-.222 2.489-.662a4.59 4.59 0 0 0 1.806-1.791c.424-.75.635-1.6.635-2.543 0-1.437-.475-2.639-1.421-3.605-.947-.967-2.11-1.449-3.497-1.449zm9.746 11.191h1.597V9.331h-1.597v17.203zm3.237-12.413h1.642l3.8 9.014 3.98-9.014h.289l3.968 9.014 3.866-9.014h1.667L75.43 26.535h-.307l-3.95-8.886-3.978 8.886h-.296L61.604 14.12zm33.46 0v12.414H93.49V24.4c-.669.815-1.42 1.425-2.255 1.838a6.123 6.123 0 0 1-2.733.616c-1.756 0-3.255-.639-4.501-1.912-1.242-1.274-1.865-2.823-1.865-4.65 0-1.787.63-3.313 1.884-4.583 1.254-1.269 2.765-1.908 4.529-1.908 1.02 0 1.943.218 2.765.65.824.436 1.549 1.087 2.176 1.952v-2.282h1.573zm-6.39 1.222a4.85 4.85 0 0 0-2.466.654 4.81 4.81 0 0 0-1.795 1.846 5.052 5.052 0 0 0 .004 5.019 4.933 4.933 0 0 0 1.811 1.866 4.732 4.732 0 0 0 2.434.665 5 5 0 0 0 2.488-.662 4.59 4.59 0 0 0 1.807-1.791c.424-.75.634-1.6.634-2.543 0-1.437-.475-2.639-1.421-3.605-.946-.967-2.11-1.449-3.497-1.449zm8.648-1.222h1.69l4.268 9.563 4.138-9.563h1.702l-7.406 16.953h-1.686l2.394-5.475-5.1-11.478zm20.103 1.359l-1.027 1.062c-.854-.83-1.687-1.245-2.5-1.245-.518 0-.958.17-1.328.513-.37.343-.553.744-.553 1.2 0 .402.152.786.455 1.152.304.371.944.81 1.917 1.313 1.187.615 1.994 1.207 2.418 1.78.42.576.63 1.226.63 1.95 0 1.017-.358 1.88-1.074 2.59-.713.704-1.608 1.06-2.68 1.06a4.687 4.687 0 0 1-2.048-.468 4.516 4.516 0 0 1-1.616-1.29l1.005-1.14c.814.919 1.678 1.378 2.59 1.378.638 0 1.183-.202 1.631-.615.448-.41.674-.892.674-1.45 0-.454-.148-.863-.444-1.218-.3-.35-.966-.794-2.01-1.323-1.116-.58-1.876-1.15-2.281-1.714a3.235 3.235 0 0 1-.604-1.927c0-.942.32-1.725.962-2.349.643-.622 1.457-.938 2.438-.938 1.14 0 2.289.56 3.445 1.679z"/>
        <path fill="#F2303A" d="M130.515 21.153h-6.552l-2.557 5.382h-2.69l8.097-17.145h.899l7.995 17.145h-2.622l-2.57-5.382zm-1.09-2.365l-2.167-4.616-2.189 4.616h4.355z"/>
        <mask id="b" fill="#fff">
            <use xlink:href="#a"/>
        </mask>
        <path fill="#F2303A" d="M136.997 26.534h2.422V9.39h-2.422z" mask="url(#b)"/>
    </g>
</svg>
